# xmcd
#
# Track frame offsets:
#	150
#	24138
#	46901
#	73509
#	93182
#	112773
#	141256
#	169439
#	191731
#	215043
#
# Disc length: 3086 seconds
#
# Revision: 4294901761
# Processed by: cddbd v1.5.2PL0 Copyright (c) Steve Scherf et al.
# Submitted via: EZCDAudioConverter 8.0.2.1
#
DISCID=870c0c0a
DTITLE=Sĩ Phú - Ca Khúc Một Thời Vang Bóng
DYEAR=2001
DGENRE=World Pop
TTITLE0=Nghe những tàn phai
TTITLE1=Bây giờ tháng mấy
TTITLE2=Chiều thu ấy
TTITLE3=Nỗi niềm
TTITLE4=Rừng xưa đã khép
TTITLE5=Khi người yêu tôi khóc
TTITLE6=Đàn trong đêm vắng
TTITLE7=Chờ người
TTITLE8=Mắt biếc
TTITLE9=Ru em từng ngón xuân nồng
EXTD=
EXTT0=
EXTT1=
EXTT2=
EXTT3=
EXTT4=
EXTT5=
EXTT6=
EXTT7=
EXTT8=
EXTT9=
PLAYORDER=
